<mxfile host="app.diagrams.net" modified="2021-10-28T08:53:07.080Z" agent="5.0 (Windows NT 10.0; Win64; x64) AppleWebKit/537.36 (KHTML, like Gecko) Chrome/95.0.4638.54 Safari/537.36" etag="VJkAdpWy-UZcPJq6ET5W" version="15.6.1" type="github">
  <diagram id="XR_IhKhiMJjilGLAqORa" name="第 1 页">
    <mxGraphModel dx="1038" dy="539" grid="1" gridSize="10" guides="1" tooltips="1" connect="1" arrows="1" fold="1" page="1" pageScale="1" pageWidth="827" pageHeight="1169" math="0" shadow="0">
      <root>
        <mxCell id="0" />
        <mxCell id="1" parent="0" />
        <mxCell id="x-3fWTDFklrFuXH1gbT8-3" style="edgeStyle=orthogonalEdgeStyle;rounded=0;orthogonalLoop=1;jettySize=auto;html=1;exitX=1;exitY=0.5;exitDx=0;exitDy=0;entryX=0;entryY=0.5;entryDx=0;entryDy=0;" edge="1" parent="1" source="x-3fWTDFklrFuXH1gbT8-1" target="x-3fWTDFklrFuXH1gbT8-2">
          <mxGeometry relative="1" as="geometry" />
        </mxCell>
        <mxCell id="x-3fWTDFklrFuXH1gbT8-4" value="登记课程" style="edgeLabel;html=1;align=center;verticalAlign=middle;resizable=0;points=[];" vertex="1" connectable="0" parent="x-3fWTDFklrFuXH1gbT8-3">
          <mxGeometry x="-0.1855" y="2" relative="1" as="geometry">
            <mxPoint as="offset" />
          </mxGeometry>
        </mxCell>
        <mxCell id="x-3fWTDFklrFuXH1gbT8-1" value="教师" style="rounded=0;whiteSpace=wrap;html=1;" vertex="1" parent="1">
          <mxGeometry x="90" y="170" width="60" height="30" as="geometry" />
        </mxCell>
        <mxCell id="x-3fWTDFklrFuXH1gbT8-9" style="edgeStyle=orthogonalEdgeStyle;rounded=0;orthogonalLoop=1;jettySize=auto;html=1;exitX=1;exitY=0.5;exitDx=0;exitDy=0;entryX=0;entryY=0.5;entryDx=0;entryDy=0;" edge="1" parent="1" source="x-3fWTDFklrFuXH1gbT8-2" target="x-3fWTDFklrFuXH1gbT8-11">
          <mxGeometry relative="1" as="geometry">
            <mxPoint x="420" y="185" as="targetPoint" />
          </mxGeometry>
        </mxCell>
        <mxCell id="x-3fWTDFklrFuXH1gbT8-12" value="请求数据" style="edgeLabel;html=1;align=center;verticalAlign=middle;resizable=0;points=[];" vertex="1" connectable="0" parent="x-3fWTDFklrFuXH1gbT8-9">
          <mxGeometry x="-0.3491" relative="1" as="geometry">
            <mxPoint as="offset" />
          </mxGeometry>
        </mxCell>
        <mxCell id="x-3fWTDFklrFuXH1gbT8-2" value="判断是否开学" style="ellipse;whiteSpace=wrap;html=1;aspect=fixed;" vertex="1" parent="1">
          <mxGeometry x="260" y="145" width="80" height="80" as="geometry" />
        </mxCell>
        <mxCell id="x-3fWTDFklrFuXH1gbT8-7" style="edgeStyle=orthogonalEdgeStyle;rounded=0;orthogonalLoop=1;jettySize=auto;html=1;exitX=0.5;exitY=0;exitDx=0;exitDy=0;entryX=0.5;entryY=1;entryDx=0;entryDy=0;" edge="1" parent="1" source="x-3fWTDFklrFuXH1gbT8-6" target="x-3fWTDFklrFuXH1gbT8-2">
          <mxGeometry relative="1" as="geometry" />
        </mxCell>
        <mxCell id="x-3fWTDFklrFuXH1gbT8-8" value="日期" style="edgeLabel;html=1;align=center;verticalAlign=middle;resizable=0;points=[];" vertex="1" connectable="0" parent="x-3fWTDFklrFuXH1gbT8-7">
          <mxGeometry x="0.2939" y="-1" relative="1" as="geometry">
            <mxPoint as="offset" />
          </mxGeometry>
        </mxCell>
        <mxCell id="x-3fWTDFklrFuXH1gbT8-40" style="edgeStyle=orthogonalEdgeStyle;rounded=0;orthogonalLoop=1;jettySize=auto;html=1;exitX=0.5;exitY=1;exitDx=0;exitDy=0;entryX=0.5;entryY=0;entryDx=0;entryDy=0;" edge="1" parent="1" source="x-3fWTDFklrFuXH1gbT8-6" target="x-3fWTDFklrFuXH1gbT8-36">
          <mxGeometry relative="1" as="geometry" />
        </mxCell>
        <mxCell id="x-3fWTDFklrFuXH1gbT8-41" value="日期" style="edgeLabel;html=1;align=center;verticalAlign=middle;resizable=0;points=[];" vertex="1" connectable="0" parent="x-3fWTDFklrFuXH1gbT8-40">
          <mxGeometry x="-0.1457" y="-1" relative="1" as="geometry">
            <mxPoint as="offset" />
          </mxGeometry>
        </mxCell>
        <mxCell id="x-3fWTDFklrFuXH1gbT8-6" value="时钟" style="rounded=0;whiteSpace=wrap;html=1;" vertex="1" parent="1">
          <mxGeometry x="270" y="345" width="60" height="30" as="geometry" />
        </mxCell>
        <mxCell id="x-3fWTDFklrFuXH1gbT8-15" value="" style="edgeStyle=orthogonalEdgeStyle;rounded=0;orthogonalLoop=1;jettySize=auto;html=1;" edge="1" parent="1" source="x-3fWTDFklrFuXH1gbT8-11" target="x-3fWTDFklrFuXH1gbT8-14">
          <mxGeometry relative="1" as="geometry" />
        </mxCell>
        <mxCell id="x-3fWTDFklrFuXH1gbT8-17" style="edgeStyle=orthogonalEdgeStyle;rounded=0;orthogonalLoop=1;jettySize=auto;html=1;exitX=0.5;exitY=1;exitDx=0;exitDy=0;entryX=0.5;entryY=0;entryDx=0;entryDy=0;" edge="1" parent="1" source="x-3fWTDFklrFuXH1gbT8-11" target="x-3fWTDFklrFuXH1gbT8-18">
          <mxGeometry relative="1" as="geometry">
            <mxPoint x="490" y="290" as="targetPoint" />
            <Array as="points">
              <mxPoint x="490" y="260" />
              <mxPoint x="490" y="260" />
            </Array>
          </mxGeometry>
        </mxCell>
        <mxCell id="x-3fWTDFklrFuXH1gbT8-19" value="请求数据" style="edgeLabel;html=1;align=center;verticalAlign=middle;resizable=0;points=[];" vertex="1" connectable="0" parent="x-3fWTDFklrFuXH1gbT8-17">
          <mxGeometry x="-0.2337" y="1" relative="1" as="geometry">
            <mxPoint as="offset" />
          </mxGeometry>
        </mxCell>
        <mxCell id="x-3fWTDFklrFuXH1gbT8-11" value="判断是否是&lt;br&gt;修改命令" style="ellipse;whiteSpace=wrap;html=1;aspect=fixed;" vertex="1" parent="1">
          <mxGeometry x="450" y="145" width="80" height="80" as="geometry" />
        </mxCell>
        <mxCell id="x-3fWTDFklrFuXH1gbT8-13" value="未开学" style="text;html=1;align=center;verticalAlign=middle;resizable=0;points=[];autosize=1;strokeColor=none;fillColor=none;" vertex="1" parent="1">
          <mxGeometry x="340" y="160" width="50" height="20" as="geometry" />
        </mxCell>
        <mxCell id="x-3fWTDFklrFuXH1gbT8-26" style="edgeStyle=orthogonalEdgeStyle;rounded=0;orthogonalLoop=1;jettySize=auto;html=1;exitX=1;exitY=0.5;exitDx=0;exitDy=0;entryX=1;entryY=0.75;entryDx=0;entryDy=0;" edge="1" parent="1" source="x-3fWTDFklrFuXH1gbT8-14" target="x-3fWTDFklrFuXH1gbT8-20">
          <mxGeometry relative="1" as="geometry">
            <mxPoint x="750" y="185" as="targetPoint" />
          </mxGeometry>
        </mxCell>
        <mxCell id="x-3fWTDFklrFuXH1gbT8-29" value="课程数据" style="edgeLabel;html=1;align=center;verticalAlign=middle;resizable=0;points=[];" vertex="1" connectable="0" parent="x-3fWTDFklrFuXH1gbT8-26">
          <mxGeometry x="-0.3584" y="-1" relative="1" as="geometry">
            <mxPoint as="offset" />
          </mxGeometry>
        </mxCell>
        <mxCell id="x-3fWTDFklrFuXH1gbT8-42" style="edgeStyle=orthogonalEdgeStyle;rounded=0;orthogonalLoop=1;jettySize=auto;html=1;exitX=0.5;exitY=1;exitDx=0;exitDy=0;entryX=1;entryY=0;entryDx=0;entryDy=0;" edge="1" parent="1" source="x-3fWTDFklrFuXH1gbT8-14" target="x-3fWTDFklrFuXH1gbT8-20">
          <mxGeometry relative="1" as="geometry">
            <Array as="points">
              <mxPoint x="650" y="480" />
            </Array>
          </mxGeometry>
        </mxCell>
        <mxCell id="x-3fWTDFklrFuXH1gbT8-43" value="删除信息" style="edgeLabel;html=1;align=center;verticalAlign=middle;resizable=0;points=[];" vertex="1" connectable="0" parent="x-3fWTDFklrFuXH1gbT8-42">
          <mxGeometry x="-0.1531" y="2" relative="1" as="geometry">
            <mxPoint as="offset" />
          </mxGeometry>
        </mxCell>
        <mxCell id="x-3fWTDFklrFuXH1gbT8-14" value="判断是否是&lt;br&gt;删除命令" style="ellipse;whiteSpace=wrap;html=1;aspect=fixed;" vertex="1" parent="1">
          <mxGeometry x="610" y="145" width="80" height="80" as="geometry" />
        </mxCell>
        <mxCell id="x-3fWTDFklrFuXH1gbT8-16" value="否" style="text;html=1;align=center;verticalAlign=middle;resizable=0;points=[];autosize=1;strokeColor=none;fillColor=none;" vertex="1" parent="1">
          <mxGeometry x="525" y="170" width="30" height="20" as="geometry" />
        </mxCell>
        <mxCell id="x-3fWTDFklrFuXH1gbT8-23" style="edgeStyle=none;rounded=0;orthogonalLoop=1;jettySize=auto;html=1;exitX=1;exitY=1;exitDx=0;exitDy=0;entryX=0.87;entryY=-0.17;entryDx=0;entryDy=0;entryPerimeter=0;" edge="1" parent="1" source="x-3fWTDFklrFuXH1gbT8-18" target="x-3fWTDFklrFuXH1gbT8-20">
          <mxGeometry relative="1" as="geometry" />
        </mxCell>
        <mxCell id="x-3fWTDFklrFuXH1gbT8-24" value="更新数据" style="edgeLabel;html=1;align=center;verticalAlign=middle;resizable=0;points=[];" vertex="1" connectable="0" parent="x-3fWTDFklrFuXH1gbT8-23">
          <mxGeometry x="-0.4037" y="1" relative="1" as="geometry">
            <mxPoint as="offset" />
          </mxGeometry>
        </mxCell>
        <mxCell id="x-3fWTDFklrFuXH1gbT8-18" value="处理数据" style="ellipse;whiteSpace=wrap;html=1;aspect=fixed;" vertex="1" parent="1">
          <mxGeometry x="450" y="320" width="80" height="80" as="geometry" />
        </mxCell>
        <mxCell id="x-3fWTDFklrFuXH1gbT8-21" style="rounded=0;orthogonalLoop=1;jettySize=auto;html=1;exitX=0.25;exitY=0;exitDx=0;exitDy=0;entryX=0.25;entryY=0.947;entryDx=0;entryDy=0;entryPerimeter=0;" edge="1" parent="1" source="x-3fWTDFklrFuXH1gbT8-20" target="x-3fWTDFklrFuXH1gbT8-18">
          <mxGeometry relative="1" as="geometry">
            <mxPoint x="470" y="400" as="targetPoint" />
          </mxGeometry>
        </mxCell>
        <mxCell id="x-3fWTDFklrFuXH1gbT8-22" value="课程数据" style="edgeLabel;html=1;align=center;verticalAlign=middle;resizable=0;points=[];" vertex="1" connectable="0" parent="x-3fWTDFklrFuXH1gbT8-21">
          <mxGeometry x="-0.2545" relative="1" as="geometry">
            <mxPoint as="offset" />
          </mxGeometry>
        </mxCell>
        <mxCell id="x-3fWTDFklrFuXH1gbT8-49" style="edgeStyle=orthogonalEdgeStyle;rounded=0;orthogonalLoop=1;jettySize=auto;html=1;exitX=0.25;exitY=1;exitDx=0;exitDy=0;entryX=1;entryY=0;entryDx=0;entryDy=0;" edge="1" parent="1" source="x-3fWTDFklrFuXH1gbT8-20" target="x-3fWTDFklrFuXH1gbT8-44">
          <mxGeometry relative="1" as="geometry">
            <Array as="points">
              <mxPoint x="470" y="662" />
            </Array>
          </mxGeometry>
        </mxCell>
        <mxCell id="x-3fWTDFklrFuXH1gbT8-50" value="课程数据" style="edgeLabel;html=1;align=center;verticalAlign=middle;resizable=0;points=[];" vertex="1" connectable="0" parent="x-3fWTDFklrFuXH1gbT8-49">
          <mxGeometry x="-0.6032" y="-2" relative="1" as="geometry">
            <mxPoint as="offset" />
          </mxGeometry>
        </mxCell>
        <mxCell id="x-3fWTDFklrFuXH1gbT8-20" value="课程文件" style="html=1;dashed=0;whitespace=wrap;shape=partialRectangle;right=0;left=0;" vertex="1" parent="1">
          <mxGeometry x="450" y="480" width="80" height="20" as="geometry" />
        </mxCell>
        <mxCell id="x-3fWTDFklrFuXH1gbT8-27" value="是" style="text;html=1;align=center;verticalAlign=middle;resizable=0;points=[];autosize=1;strokeColor=none;fillColor=none;" vertex="1" parent="1">
          <mxGeometry x="625" y="230" width="30" height="20" as="geometry" />
        </mxCell>
        <mxCell id="x-3fWTDFklrFuXH1gbT8-37" style="edgeStyle=orthogonalEdgeStyle;rounded=0;orthogonalLoop=1;jettySize=auto;html=1;exitX=1;exitY=0.5;exitDx=0;exitDy=0;entryX=0;entryY=0.5;entryDx=0;entryDy=0;" edge="1" parent="1" source="x-3fWTDFklrFuXH1gbT8-35" target="x-3fWTDFklrFuXH1gbT8-36">
          <mxGeometry relative="1" as="geometry" />
        </mxCell>
        <mxCell id="x-3fWTDFklrFuXH1gbT8-39" value="删除课程请求" style="edgeLabel;html=1;align=center;verticalAlign=middle;resizable=0;points=[];" vertex="1" connectable="0" parent="x-3fWTDFklrFuXH1gbT8-37">
          <mxGeometry x="-0.24" relative="1" as="geometry">
            <mxPoint as="offset" />
          </mxGeometry>
        </mxCell>
        <mxCell id="x-3fWTDFklrFuXH1gbT8-35" value="教务处" style="rounded=0;whiteSpace=wrap;html=1;" vertex="1" parent="1">
          <mxGeometry x="90" y="540" width="60" height="30" as="geometry" />
        </mxCell>
        <mxCell id="x-3fWTDFklrFuXH1gbT8-45" style="edgeStyle=orthogonalEdgeStyle;rounded=0;orthogonalLoop=1;jettySize=auto;html=1;exitX=0.5;exitY=1;exitDx=0;exitDy=0;entryX=0.5;entryY=0;entryDx=0;entryDy=0;" edge="1" parent="1" source="x-3fWTDFklrFuXH1gbT8-36" target="x-3fWTDFklrFuXH1gbT8-44">
          <mxGeometry relative="1" as="geometry" />
        </mxCell>
        <mxCell id="x-3fWTDFklrFuXH1gbT8-36" value="判断是否&lt;br&gt;是第二周" style="ellipse;whiteSpace=wrap;html=1;aspect=fixed;" vertex="1" parent="1">
          <mxGeometry x="260" y="515" width="80" height="80" as="geometry" />
        </mxCell>
        <mxCell id="x-3fWTDFklrFuXH1gbT8-47" style="edgeStyle=orthogonalEdgeStyle;rounded=0;orthogonalLoop=1;jettySize=auto;html=1;exitX=1;exitY=0.5;exitDx=0;exitDy=0;entryX=0.75;entryY=1;entryDx=0;entryDy=0;" edge="1" parent="1" source="x-3fWTDFklrFuXH1gbT8-44" target="x-3fWTDFklrFuXH1gbT8-20">
          <mxGeometry relative="1" as="geometry" />
        </mxCell>
        <mxCell id="x-3fWTDFklrFuXH1gbT8-48" value="删除数据" style="edgeLabel;html=1;align=center;verticalAlign=middle;resizable=0;points=[];" vertex="1" connectable="0" parent="x-3fWTDFklrFuXH1gbT8-47">
          <mxGeometry x="0.1656" y="-2" relative="1" as="geometry">
            <mxPoint as="offset" />
          </mxGeometry>
        </mxCell>
        <mxCell id="x-3fWTDFklrFuXH1gbT8-44" value="判断课程申请人数是否小于M" style="ellipse;whiteSpace=wrap;html=1;aspect=fixed;" vertex="1" parent="1">
          <mxGeometry x="260" y="650" width="80" height="80" as="geometry" />
        </mxCell>
        <mxCell id="x-3fWTDFklrFuXH1gbT8-46" value="删除请求" style="text;html=1;align=center;verticalAlign=middle;resizable=0;points=[];autosize=1;strokeColor=none;fillColor=none;" vertex="1" parent="1">
          <mxGeometry x="280" y="610" width="60" height="20" as="geometry" />
        </mxCell>
      </root>
    </mxGraphModel>
  </diagram>
</mxfile>
